<svg xmlns="http://www.w3.org/2000/svg" xmlns:xlink="http://www.w3.org/1999/xlink" version="1.1"  viewBox="0 0 256 256" xml:space="preserve">

<defs>
</defs>
<g style="stroke: none; stroke-width: 0; stroke-dasharray: none; stroke-linecap: butt; stroke-linejoin: miter; stroke-miterlimit: 10; fill: none; fill-rule: nonzero; opacity: 1;" transform="translate(1.4065934065934016 1.4065934065934016) scale(2.81 2.81)" >
	<path d="M 5.246 90 c -1.83 0 -3.592 -1.008 -4.471 -2.754 c -1.241 -2.467 -0.247 -5.473 2.22 -6.714 L 73.632 45 L 2.995 9.467 c -2.467 -1.241 -3.46 -4.246 -2.22 -6.714 c 1.241 -2.466 4.247 -3.46 6.714 -2.22 l 79.517 39.999 c 1.687 0.849 2.753 2.577 2.753 4.467 s -1.065 3.617 -2.753 4.467 L 7.489 89.466 C 6.768 89.828 6.002 90 5.246 90 z" style="stroke: none; stroke-width: 1; stroke-dasharray: none; stroke-linecap: butt; stroke-linejoin: miter; stroke-miterlimit: 10; fill: rgb(0,0,0); fill-rule: nonzero; opacity: 1;" transform=" matrix(1 0 0 1 0 0) " stroke-linecap="round" />
</g>
</svg>