<svg xmlns="http://www.w3.org/2000/svg" viewBox="0 0 24 24">
  <path d="M12.089 15.147a.369.369 0 0 0 .086-.025.378.378 0 0 0 .083-.046c.016-.01.035-.015.049-.027.01-.009.015-.021.023-.03.009-.01.021-.014.03-.023l4.577-5.371a.475.475 0 0 0-.053-.668.472.472 0 0 0-.667.053L12 13.958 7.783 9.01a.472.472 0 0 0-.833.308.47.47 0 0 0 .113.307l4.577 5.371c.009.011.022.015.032.025.008.009.011.02.021.028.015.012.033.017.049.027a.398.398 0 0 0 .083.046c.028.012.057.018.086.025.03.005.058.01.089.01s.059-.005.089-.01z" fill="#000000"/>
</svg>